<svg width="392" height="334" viewBox="0 0 392 334" fill="none" xmlns="http://www.w3.org/2000/svg">
<g filter="url(#filter0_d_235_4320)">
<path d="M187.345 99.1046C92.5169 57.555 -16.228 115.463 -34.6515 217.324C-36.5158 227.632 -39.4392 237.719 -43.3752 247.426L-58.8099 285.491C-92.1515 367.719 -53.5884 461.515 27.9554 496.536C110.264 531.885 205.671 494.222 241.614 412.189L255.552 380.38C260.249 369.659 266.178 359.522 273.219 350.172C334.911 268.248 303.972 150.205 210.023 109.041L187.345 99.1046Z" fill="#A6DFF8" stroke="#1B6397" stroke-width="8"/>
<ellipse cx="220.973" cy="265.857" rx="11.108" ry="11.6431" transform="rotate(23.6609 220.973 265.857)" fill="black"/>
<ellipse cx="60.892" cy="197.281" rx="11.108" ry="11.6431" transform="rotate(23.6609 60.892 197.281)" fill="black"/>
<path d="M218.473 300.85C217.52 319.989 194.17 318.001 117.304 277.716C76.9644 264.853 13.3624 244.421 33.738 221.798" stroke="#1B6397" stroke-width="8" stroke-linecap="round"/>
<ellipse cx="0.269503" cy="208.854" rx="23.291" ry="23.2862" transform="rotate(23.6609 0.269503 208.854)" fill="#F6ABCC" fill-opacity="0.9"/>
<ellipse cx="250.934" cy="317.119" rx="23.291" ry="23.2862" transform="rotate(23.6609 250.934 317.119)" fill="#F6ABCC" fill-opacity="0.9"/>
<path d="M-27.6318 352.11C-13.6116 311.152 33.7211 292.452 71.9486 312.769L93.598 324.275C97.646 326.427 101.85 328.27 106.175 329.79L126.111 336.794C169.163 351.921 188.61 401.982 167.343 442.355C165.657 445.555 164.211 448.891 163.03 452.309C149.44 491.641 105.184 511.012 67.0686 494.311L2.73926 466.125C-36.8947 448.759 -53.0528 400.958 -32.3896 362.939C-30.5067 359.474 -28.9087 355.84 -27.6318 352.11Z" fill="white"/>
<path d="M54.6652 305.242C48.0186 310.739 30.9322 329.497 24.6735 340.21C18.4149 350.922 4.93278 383.776 -2.14021 401.407" stroke="#A6DFF8" stroke-width="3" stroke-linecap="round"/>
<path d="M100.007 327.651L57.5938 424.45" stroke="#A6DFF8" stroke-width="3" stroke-linecap="round"/>
<path d="M42.0513 296.977C58.8906 307.354 106.654 332.48 162.993 349.968" stroke="#1B6397" stroke-width="5" stroke-linecap="round"/>
<path d="M302.089 321.072C299.72 326.48 296.727 331.237 293.911 335.356C292.796 336.986 291.749 338.463 290.777 339.834C289.194 342.066 287.811 344.017 286.656 345.895C284.74 349.013 284.328 350.64 284.432 351.477C284.468 351.766 284.642 352.878 287.976 354.338C294.344 357.129 301.842 356.396 308.999 352.433C316.16 348.468 322.756 341.356 326.884 331.936C331.011 322.517 331.768 312.846 329.829 304.894C327.89 296.946 323.346 290.936 316.978 288.146C313.644 286.686 312.709 287.311 312.472 287.481C311.787 287.972 310.869 289.378 309.877 292.9C309.278 295.021 308.782 297.362 308.214 300.038C307.865 301.682 307.489 303.453 307.046 305.378C305.927 310.24 304.458 315.665 302.089 321.072Z" fill="#E6E6E6" stroke="#1B6397" stroke-width="8"/>
<path d="M314.063 286.546C331.496 215.988 300.564 133.34 205.614 91.7366C110.663 50.1335 24.5878 79.4927 -12.5343 143.446" stroke="#1B6397" stroke-width="8"/>
<path d="M-39.4575 209.509C-31.6179 225.977 -1.59819 264.184 55.7635 285.273" stroke="#1B6397" stroke-width="8" stroke-linecap="round" stroke-linejoin="round"/>
<ellipse cx="73.5267" cy="289.349" rx="20.3755" ry="11.4226" transform="rotate(23.6609 73.5267 289.349)" fill="black"/>
</g>
<defs>
<filter id="filter0_d_235_4320" x="-138" y="-12" width="557.496" height="609.924" filterUnits="userSpaceOnUse" color-interpolation-filters="sRGB">
<feFlood flood-opacity="0" result="BackgroundImageFix"/>
<feColorMatrix in="SourceAlpha" type="matrix" values="0 0 0 0 0 0 0 0 0 0 0 0 0 0 0 0 0 0 127 0" result="hardAlpha"/>
<feOffset dx="8" dy="8"/>
<feGaussianBlur stdDeviation="10"/>
<feComposite in2="hardAlpha" operator="out"/>
<feColorMatrix type="matrix" values="0 0 0 0 0 0 0 0 0 0 0 0 0 0 0 0 0 0 0.3 0"/>
<feBlend mode="normal" in2="BackgroundImageFix" result="effect1_dropShadow_235_4320"/>
<feBlend mode="normal" in="SourceGraphic" in2="effect1_dropShadow_235_4320" result="shape"/>
</filter>
</defs>
</svg>
