<svg width="222" height="210" viewBox="0 0 222 210" fill="none" xmlns="http://www.w3.org/2000/svg">
<g filter="url(#filter0_d_23_96)">
<rect x="276.819" y="8.95093" width="89.2244" height="17.0222" transform="rotate(-129.083 276.819 8.95093)" fill="white"/>
<path d="M258.798 45.9065L181.794 -48.9048L215.142 -75.9891L292.146 18.8222L258.798 45.9065Z" fill="white"/>
<path d="M106.681 -26.9584C116.605 -35.0188 132.235 -46.1652 145.339 -49.4275C152.159 -51.1257 163.073 -48.699 170.228 -48.9968C198.903 -50.1901 221.503 -37.9419 241.042 -13.8847C266.657 17.6535 267.037 63.7658 251.575 98.0855C246.293 108.656 238.841 116.798 230.188 123.825C212.09 138.524 185.772 146.981 161.473 143.364C137.716 139.829 115.964 124.617 99.2636 104.054C84.7986 86.2443 73.9002 66.2601 73.1144 45.5003C72.065 17.7782 86.2146 -10.3362 106.681 -26.9584Z" fill="white"/>
<ellipse cx="142.066" cy="35.2536" rx="11.6945" ry="13.3746" transform="rotate(-129.083 142.066 35.2536)" fill="black"/>
<ellipse cx="178.111" cy="79.6335" rx="11.6945" ry="13.3746" transform="rotate(-129.083 178.111 79.6335)" fill="black"/>
<path d="M168.349 11.6755C172.664 8.17132 178.988 6.52144 185.719 9.28576C191.728 11.7535 197.569 16.8048 202.833 23.2856C208.096 29.7665 211.842 36.5194 213.025 42.9068C214.35 50.0618 211.712 56.2494 207.397 59.7536C203.083 63.2578 195.537 65.3417 188.806 62.5774C182.797 60.1097 177.265 54.8067 172.002 48.3258C166.738 41.845 162.682 35.3438 161.499 28.9564C160.174 21.8014 164.035 15.1797 168.349 11.6755Z" fill="#FFC20E"/>
<ellipse cx="149.705" cy="6.73" rx="9.96195" ry="6.48466" transform="rotate(-129.083 149.705 6.73)" fill="#F9D1E2"/>
<ellipse cx="208.687" cy="79.3513" rx="9.96195" ry="6.48466" transform="rotate(-129.083 208.687 79.3513)" fill="#F9D1E2"/>
<path d="M197.438 49.429C197.28 45.1277 195.429 38.7947 190.878 32.9951C187.594 28.8094 182.189 23.54 175.32 22.1959" stroke="black" stroke-width="4" stroke-linecap="round"/>
<path d="M271.667 23.1791L292.498 19.2565M216.988 -76.9305C219.614 -90.6692 207.715 -103.25 200.891 -108.496C188.608 -101.645 181.702 -67.243 181.832 -48.3771C177.323 -49.5124 171.566 -50.0792 160.807 -50.8309C141.744 -52.1628 125.214 -42.0108 111.231 -30.654C94.0265 -16.6808 81.4748 0.720133 75.8593 18.0223M216.988 -76.9305C214.362 -63.1918 205.162 -53.5621 202.612 -49.6308M216.988 -76.9305C231.695 -76.8227 244.225 -62.0384 248.651 -54.6597L284.968 -9.94378C292.396 -0.798865 294.864 15.2536 292.498 19.2565M292.498 19.2565L303.836 18.2553C314.141 19.3717 334.312 33.6786 327.566 42.505C322.17 49.5661 281.717 46.0544 260.724 45.0632C262.962 63.8908 262.924 63.2009 260.478 76.9047C255.045 97.499 248.344 111.311 233.649 123.246C217.458 136.396 199.223 143.126 181.264 144.589" stroke="#1B6397" stroke-width="4" stroke-linecap="round" stroke-linejoin="round"/>
<path d="M172.183 143.594L140.856 121.608L112.084 91.9679L90.886 60.0818L74.0226 16.3054L82.2023 9.66205L100.088 46.4702L126.409 81.4494L151.151 109.341L187.877 139.775L184.838 145.034L172.183 143.594Z" fill="#A2D2FF"/>
<path d="M148.457 156.168L127.805 154.527L109.606 147.547L87.096 130.118L71.4484 112.138L59.0299 90.4184L55.794 56.2195L60.0766 43.8135L65.113 29.1214L74.4441 18.7529L86.0318 52.3065L104.796 85.0532L136.721 120.503L175.584 145.854L148.457 156.168Z" fill="#A2D2FF"/>
<path d="M177.662 145.84C166.411 152.56 139.416 162.395 117.311 151.891" stroke="#1B6397" stroke-width="4" stroke-linecap="round" stroke-linejoin="round"/>
<path d="M118.171 152.308C100.874 145.153 63.1678 118.528 56.1862 75.9884" stroke="#1B6397" stroke-width="4" stroke-linecap="round" stroke-linejoin="round"/>
<path d="M73.3103 17.9998C64.363 27.1265 51.2174 53.7987 56.6493 77.8442" stroke="#1B6397" stroke-width="4" stroke-linecap="round" stroke-linejoin="round"/>
<path d="M177.703 145.249C185.649 144.747 197.028 141.271 178.973 131.384C156.404 119.024 100.284 56.3544 88.9694 23.137" stroke="#1B6397" stroke-width="4" stroke-linecap="round" stroke-linejoin="round"/>
<path d="M73.2689 18.5917C75.1407 14.4676 82.394 5.94174 84.7015 12.0963C95.4461 40.7546 98.0698 41.4136 99.6251 44.6143" stroke="#1B6397" stroke-width="4" stroke-linecap="round" stroke-linejoin="round"/>
<path d="M177.976 145.585C151.456 134.575 93.5203 93.5417 73.9395 17.4889" stroke="#1B6397" stroke-width="4" stroke-linecap="round" stroke-linejoin="round"/>
<rect x="104.986" y="123.958" width="44.1791" height="22.6963" transform="rotate(-129.083 104.986 123.958)" fill="white"/>
<path d="M101.342 112.501L99.5135 110.25L106.003 104.98L110.504 110.522L104.015 115.792L102.187 113.541L103.522 112.457L102.677 111.417L101.342 112.501ZM105.54 110.818L106.658 109.91L105.813 108.87L104.695 109.778L105.54 110.818ZM99.702 103.63L100.547 104.67L101.665 103.762L100.82 102.722L99.702 103.63ZM98.5286 106.309L97.6838 105.269L96.3487 106.353L94.5204 104.102L101.01 98.8318L105.511 104.374L99.0218 109.645L97.1935 107.394L98.5286 106.309ZM113.008 101.454L110.462 103.522L114.396 108.366L111.99 110.32L101.562 97.4815L103.968 95.5271L108.028 100.526L110.574 98.4582L113.008 101.454ZM83.3912 90.3994C83.6396 90.1977 83.8871 90.0053 84.1335 89.8223C84.3612 89.6374 84.5786 89.4609 84.7856 89.2928C85.0029 89.1162 85.2099 88.9481 85.4065 88.7884C85.5928 88.6371 85.7688 88.4942 85.9344 88.3597C86.3134 88.0862 86.6657 87.8431 86.991 87.6304C87.308 87.4073 87.6033 87.2104 87.8769 87.0397L90.033 89.6944C89.8279 89.8438 89.6384 89.9806 89.4644 90.1047C89.2716 90.2269 89.0944 90.3365 88.9327 90.4335C88.8706 90.4839 88.7981 90.5428 88.7153 90.61C88.6326 90.6772 88.5498 90.7445 88.467 90.8117C88.3738 90.8874 88.2807 90.963 88.1875 91.0387C88.0756 91.1124 87.9627 91.1955 87.8489 91.288L94.9855 100.075L92.7344 101.903L83.3912 90.3994ZM100.306 96.8871L98.1329 98.6524L94.6276 94.3365L92.951 95.6983L90.6688 92.8883L92.3454 91.5265L87.7054 85.8134L89.8789 84.0482L100.306 96.8871ZM98.9112 87.3019C98.4741 86.7637 98.0939 86.3167 97.7706 85.9609C97.4389 85.5948 97.1537 85.3282 96.9151 85.1613C96.714 84.9983 96.53 84.8987 96.3631 84.8624C96.1879 84.8158 96.0381 84.843 95.9139 84.9438C95.8104 85.0279 95.7635 85.1605 95.7732 85.3416C95.7745 85.5123 95.8281 85.7264 95.9341 85.9838C96.0692 86.2348 96.2768 86.5644 96.5567 86.9725C96.8283 87.3703 97.1784 87.8332 97.6071 88.361C98.0527 88.9095 98.4422 89.3575 98.7759 89.7049C99.1096 90.0523 99.3812 90.3126 99.5907 90.486C99.8293 90.6529 100.032 90.7545 100.199 90.7907C100.366 90.827 100.501 90.8031 100.604 90.719C100.729 90.6182 100.794 90.4875 100.801 90.3271C100.8 90.1564 100.732 89.9455 100.597 89.6946C100.499 89.4475 100.309 89.1292 100.028 88.7398C99.7373 88.3401 99.3651 87.8607 98.9112 87.3019ZM100.929 85.6627C101.392 86.232 101.801 86.7672 102.156 87.2685C102.514 87.7511 102.813 88.2039 103.053 88.6269C103.302 89.0603 103.512 89.4658 103.681 89.8436C103.842 90.211 103.949 90.5538 104.001 90.872C104.08 91.2025 104.116 91.5 104.107 91.7646C104.089 92.0375 104.029 92.292 103.929 92.528C103.858 92.7576 103.75 92.9739 103.606 93.177C103.453 93.3697 103.268 93.5543 103.051 93.7308C102.864 93.8821 102.666 94.0085 102.457 94.11C102.228 94.2096 101.984 94.2791 101.724 94.3185C101.493 94.3514 101.243 94.3397 100.974 94.2834C100.695 94.2355 100.396 94.1429 100.079 94.0058C99.7905 93.8621 99.4778 93.6781 99.1409 93.4536C98.7956 93.2187 98.4312 92.9393 98.0477 92.6152C97.683 92.293 97.3002 91.9168 96.8993 91.4867C96.4796 91.0545 96.0428 90.559 95.5889 90.0001C95.1518 89.462 94.7648 88.9432 94.428 88.4438C94.0808 87.9529 93.7827 87.4907 93.5338 87.0573C93.3036 86.6259 93.1132 86.2223 92.9626 85.8465C92.812 85.4707 92.6917 85.1217 92.6019 84.7996C92.5412 84.471 92.516 84.1651 92.5264 83.8818C92.5265 83.607 92.5579 83.3496 92.6207 83.1096C92.721 82.8736 92.8432 82.654 92.9875 82.451C93.1214 82.2563 93.2815 82.0833 93.4678 81.932C93.6852 81.7555 93.908 81.6175 94.1363 81.5179C94.3647 81.4184 94.5943 81.3521 94.8252 81.3192C95.0852 81.2798 95.3549 81.284 95.6343 81.3319C95.9033 81.3883 96.183 81.4789 96.4734 81.6037C96.7909 81.7409 97.113 81.9259 97.4395 82.1588C97.7661 82.3917 98.1118 82.6693 98.4765 82.9914C98.8496 83.3239 99.2356 83.7147 99.6346 84.1636C100.044 84.6041 100.476 85.1038 100.929 85.6627Z" fill="black"/>
</g>
<defs>
<filter id="filter0_d_23_96" x="-12" y="-136" width="385.795" height="374" filterUnits="userSpaceOnUse" color-interpolation-filters="sRGB">
<feFlood flood-opacity="0" result="BackgroundImageFix"/>
<feColorMatrix in="SourceAlpha" type="matrix" values="0 0 0 0 0 0 0 0 0 0 0 0 0 0 0 0 0 0 127 0" result="hardAlpha"/>
<feOffset dx="8" dy="8"/>
<feGaussianBlur stdDeviation="10"/>
<feComposite in2="hardAlpha" operator="out"/>
<feColorMatrix type="matrix" values="0 0 0 0 0 0 0 0 0 0 0 0 0 0 0 0 0 0 0.3 0"/>
<feBlend mode="normal" in2="BackgroundImageFix" result="effect1_dropShadow_23_96"/>
<feBlend mode="normal" in="SourceGraphic" in2="effect1_dropShadow_23_96" result="shape"/>
</filter>
</defs>
</svg>
